<?xml version="1.0" standalone="no"?>
<!DOCTYPE svg PUBLIC "-//W3C//DTD SVG 20010904//EN"
 "http://www.w3.org/TR/2001/REC-SVG-20010904/DTD/svg10.dtd">
<svg version="1.0" xmlns="http://www.w3.org/2000/svg"
 width="1238.000000pt" height="535.000000pt" viewBox="0 0 1238.000000 435.000000"
 preserveAspectRatio="xMidYMid meet">

<g transform="translate(0.000000,535.000000) scale(0.100000,-0.100000)"
fill="#ec001a" stroke="none">
<path d="M5853 5336 c-181 -59 -266 -257 -183 -424 56 -112 145 -167 270 -167
125 0 214 55 270 167 76 153 8 341 -149 411 -57 25 -153 31 -208 13z"/>
<path d="M4872 5209 c-182 -36 -287 -224 -225 -405 23 -67 110 -154 177 -177
117 -40 231 -14 317 72 64 65 89 124 89 212 0 189 -175 335 -358 298z"/>
<path d="M6893 5210 c-232 -47 -323 -336 -160 -509 50 -52 140 -91 213 -91 91
0 150 24 215 89 66 66 89 124 89 220 -1 116 -60 211 -163 260 -70 33 -132 43
-194 31z"/>
<path d="M3903 4806 c-90 -29 -148 -80 -187 -166 -70 -151 0 -334 153 -403 71
-33 180 -30 253 6 103 50 159 137 166 258 4 67 1 83 -23 138 -48 106 -142 170
-259 177 -35 2 -79 -2 -103 -10z"/>
<path d="M7793 4802 c-67 -24 -118 -64 -154 -120 -42 -66 -52 -106 -47 -186 8
-116 65 -204 166 -253 73 -36 182 -39 253 -6 156 70 224 253 151 408 -66 138
-228 207 -369 157z"/>
<path d="M5814 4556 c-105 -49 -164 -136 -172 -252 -7 -103 16 -163 87 -235
64 -64 124 -89 211 -89 87 0 147 25 211 89 64 65 89 124 89 212 0 119 -67 225
-173 275 -73 33 -181 34 -253 0z"/>
<path d="M5033 4462 c-208 -74 -270 -328 -122 -496 17 -20 56 -48 87 -63 47
-23 70 -28 132 -28 125 1 219 59 272 170 73 154 5 339 -151 408 -64 28 -154
32 -218 9z"/>
<path d="M6663 4466 c-179 -58 -264 -253 -185 -421 53 -111 147 -169 272 -170
122 0 213 56 272 168 19 35 23 58 23 132 0 99 -15 140 -76 209 -66 76 -209
114 -306 82z"/>
<path d="M4277 4145 c-120 -46 -197 -153 -199 -277 -2 -128 53 -220 164 -277
57 -29 77 -34 136 -34 118 0 222 65 274 172 33 66 33 197 0 258 -58 109 -143
165 -262 170 -49 2 -88 -2 -113 -12z"/>
<path d="M7409 4147 c-121 -45 -197 -141 -207 -263 -16 -206 173 -370 369
-320 278 72 317 443 60 568 -56 27 -168 35 -222 15z"/>
<path d="M5645 3780 c-411 -45 -787 -171 -1072 -358 -98 -65 -123 -97 -123
-157 0 -55 25 -94 76 -116 57 -26 89 -17 191 51 221 148 549 261 908 312 119
17 512 16 635 -1 347 -48 663 -156 901 -309 115 -73 136 -79 194 -53 71 32 98
119 56 186 -44 73 -358 242 -588 318 -149 49 -307 86 -473 113 -122 19 -575
28 -705 14z"/>
<path d="M5805 3464 c-467 -36 -837 -156 -1112 -360 -79 -59 -98 -97 -72 -145
37 -70 84 -66 202 15 154 106 304 174 516 232 351 96 771 104 1126 22 218 -50
461 -156 609 -264 83 -61 126 -69 164 -34 53 49 41 104 -36 163 -231 178 -565
304 -932 351 -119 16 -378 27 -465 20z"/>
<path d="M9735 2586 c-43 -19 -81 -65 -94 -111 -7 -25 -11 -171 -11 -397 0
-197 -3 -358 -7 -358 -5 0 -100 165 -213 367 -122 218 -221 383 -245 408 -111
119 -324 68 -370 -89 -13 -41 -15 -149 -15 -645 0 -559 2 -599 19 -637 45
-100 169 -131 255 -63 51 40 51 40 56 448 3 243 9 386 15 388 6 1 107 -169
225 -379 118 -210 225 -394 237 -409 34 -41 117 -72 175 -67 72 7 136 51 170
117 l28 53 0 627 0 627 -22 44 c-38 74 -130 109 -203 76z"/>
<path d="M10245 2581 c-48 -22 -69 -44 -90 -94 -13 -31 -15 -123 -15 -679 0
-604 2 -645 19 -684 59 -129 237 -135 308 -9 l23 40 -3 666 -2 666 -29 37
c-32 42 -95 76 -141 76 -16 0 -48 -9 -70 -19z"/>
<path d="M11636 2590 c-31 -10 -71 -43 -89 -75 -8 -14 -14 -140 -17 -404 -3
-243 -9 -385 -15 -387 -5 -2 -106 167 -223 376 -222 395 -247 429 -319 449
-134 38 -265 -34 -292 -158 -15 -72 -15 -1191 0 -1246 24 -84 116 -137 201
-114 52 14 103 63 117 114 7 26 11 169 11 398 0 196 3 357 8 357 4 0 104 -172
222 -382 118 -209 224 -392 234 -406 26 -33 112 -72 161 -72 44 0 131 37 157
66 9 11 26 40 37 64 20 44 21 63 21 670 l0 626 -22 44 c-36 71 -114 103 -192
80z"/>
<path d="M12118 2580 c-61 -33 -83 -74 -83 -155 0 -57 4 -76 23 -103 36 -49
94 -75 159 -70 144 12 210 177 116 289 -51 60 -143 76 -215 39z m153 -43 c89
-59 86 -172 -4 -227 -86 -53 -197 11 -197 113 0 109 113 173 201 114z"/>
<path d="M12137 2513 c-4 -3 -7 -46 -7 -95 0 -81 2 -88 20 -88 16 0 20 7 20
34 0 50 16 53 40 6 13 -26 27 -40 40 -40 25 0 25 5 0 46 -21 32 -21 32 -1 39
42 13 38 79 -6 96 -28 10 -96 12 -106 2z m98 -53 c0 -10 -12 -16 -32 -18 -28
-3 -33 0 -33 18 0 18 5 21 33 18 20 -2 32 -8 32 -18z"/>
<path d="M4305 2556 c-16 -7 -42 -26 -56 -42 -44 -50 -892 -1206 -911 -1243
-59 -116 52 -255 181 -226 47 10 84 46 182 177 l90 118 209 0 210 0 0 -85 c0
-55 5 -96 14 -113 39 -74 130 -116 204 -94 55 17 109 78 117 134 3 24 5 318 3
653 -3 680 0 645 -74 701 -42 33 -122 42 -169 20z m-99 -873 c-8 -20 -166 -18
-166 2 0 8 37 65 83 127 l82 112 3 -114 c1 -63 0 -120 -2 -127z"/>
<path d="M4877 2556 c-22 -8 -50 -25 -64 -38 -54 -49 -53 -35 -53 -752 l0
-665 24 -28 24 -28 350 0 c340 0 351 1 379 21 15 11 38 36 51 54 42 63 22 167
-42 213 -29 21 -44 22 -236 27 l-205 5 -5 546 -5 546 -28 36 c-48 63 -122 88
-190 63z"/>
<path d="M7575 2559 c-36 -11 -55 -26 -78 -59 -16 -22 -17 -79 -17 -686 l0
-661 23 -33 c38 -57 71 -75 136 -75 46 0 66 6 98 27 57 37 73 78 73 182 l0 86
213 0 212 -1 85 -115 c104 -142 135 -171 193 -179 57 -9 124 19 157 65 29 41
38 117 18 157 -20 40 -900 1232 -929 1260 -45 41 -114 53 -184 32z m334 -761
c46 -63 78 -115 73 -120 -5 -5 -44 -8 -88 -6 l-79 3 -3 118 c-1 66 1 117 6
117 5 0 46 -50 91 -112z"/>
<path d="M2511 2538 c-25 -13 -53 -35 -64 -49 -26 -36 -33 -106 -14 -149 8
-19 121 -158 251 -309 l236 -274 0 -256 c0 -322 6 -363 59 -413 45 -43 96 -56
151 -39 41 12 86 52 103 91 7 15 12 141 15 322 l4 297 235 273 c130 150 242
287 249 305 52 121 -58 248 -184 214 -34 -10 -63 -34 -159 -134 -65 -67 -161
-166 -214 -221 l-95 -98 -199 208 c-109 115 -210 217 -224 226 -46 30 -100 32
-150 6z"/>
<path d="M342 2534 c-148 -40 -269 -152 -312 -292 -30 -95 -32 -176 -17 -648
12 -403 15 -444 33 -474 33 -57 67 -75 139 -75 72 0 106 18 140 76 18 31 21
57 25 263 3 148 9 231 16 233 5 2 100 -119 209 -268 115 -156 212 -280 230
-290 62 -38 163 -15 209 48 11 15 21 49 24 77 4 51 3 53 -128 261 l-132 210
23 15 c80 52 140 133 170 231 21 68 25 195 8 269 -40 176 -189 322 -370 365
-79 18 -197 18 -267 -1z m221 -338 c47 -19 94 -77 102 -125 9 -53 -25 -126
-73 -158 -66 -43 -160 -38 -221 13 -39 32 -65 102 -57 149 8 42 58 103 101
121 39 17 107 17 148 0z"/>
<path d="M1660 2544 c-110 -21 -227 -75 -325 -149 -236 -180 -345 -499 -270
-790 8 -33 36 -103 62 -155 39 -80 60 -108 137 -185 104 -103 169 -145 293
-188 123 -42 289 -50 413 -18 266 67 461 248 550 511 31 93 39 288 15 395 -55
250 -251 466 -500 551 -69 24 -98 28 -215 30 -74 1 -146 0 -160 -2z m199 -344
c173 -29 309 -163 341 -338 30 -170 -66 -355 -228 -434 -83 -41 -208 -51 -293
-23 -307 99 -389 482 -149 699 63 57 152 93 255 105 6 0 39 -4 74 -9z"/>
<path d="M6723 2539 c-169 -20 -302 -87 -433 -219 -78 -77 -104 -111 -138
-180 -58 -117 -82 -218 -82 -347 0 -133 21 -225 75 -338 93 -191 269 -337 475
-394 215 -60 508 14 676 171 72 68 88 100 82 167 -9 87 -70 141 -161 141 -38
0 -59 -9 -138 -62 -105 -68 -159 -92 -235 -103 -187 -25 -378 112 -430 309
-66 248 108 504 358 523 102 8 170 -14 284 -88 50 -33 105 -64 123 -69 71 -20
148 17 182 86 41 85 12 158 -100 251 -147 121 -340 176 -538 152z"/>
</g>
</svg>
